<svg data-v-0dd9719b="" version="1.0" xmlns="http://www.w3.org/2000/svg" xmlns:xlink="http://www.w3.org/1999/xlink" width="100%" height="100%" viewBox="0 0 340.000000 250.000000" preserveAspectRatio="xMidYMid meet" color-interpolation-filters="sRGB" style="margin: auto;"> <rect data-v-0dd9719b="" x="0" y="0" width="100%" height="100%" fill="#fff" fill-opacity="1" class="background"></rect> <rect data-v-0dd9719b="" x="0" y="0" width="100%" height="100%" fill="url(#watermark)" fill-opacity="1" class="watermarklayer"></rect> <g data-v-0dd9719b="" fill="#124098" class="icon-text-wrapper icon-svg-group iconsvg" transform="translate(78.62999731302261,90.16543579101562)"><g class="iconsvg-imagesvg" transform="translate(61.37000274658203,0)"><g><rect fill="#124098" fill-opacity="0" stroke-width="2" x="0" y="0" width="60" height="41.129131764028465" class="image-rect"></rect> <svg x="0" y="0" width="60" height="41.129131764028465" filtersec="colorsb7338804040" class="image-svg-svg primary" style="overflow: visible;"><svg xmlns="http://www.w3.org/2000/svg" viewBox="-0.029999852180480957 0 63.07937240600586 43.2400016784668"><g><g><path fill="#124098" d="M19.39 43.24V.02h-7.31l-.03 43.21 7.34.01zM43.06 43.21V0h-7.32l-.02 43.21h7.34z"></path><path d="M62.48 21.69c-2.13 1.59-4.22 3.38-6.28 3.77-.59.29.21-1.06-.57-1.16a15.67 15.67 0 0 1-2.32 1.05c-.82-.41.12-1.39-.69-1.8s-2.87.72-3.54.45c-1.77-.06 1-.85 2.54-1.48-.68-.23 1.08-.34.91-.74-.31-.79-.7-1.58-2.81-1.58-.54-.05-.25-.82-.38-1.23-5.43 1.86-12.14 1-18.44-.2-5.59-1.45-13.08-4.85-20-3.86-2 .27-5.71-.07-6.7 1.55a9.29 9.29 0 0 1 2-.55C4.38 17 2.2 17.05.46 18.16c.19.38.28.58-.19 1.09a12.46 12.46 0 0 1 4.25-1.77l.19.62c-1.13.63-3.16.78-4.14 1.72l.4.76c.1.19-.43.49-1 .8l2.13-1.21.36.78c.09.2-.42.49-.93.78.19.38-.09 1 .5.95a8 8 0 0 1 1.48-.76c-1.93 1.19-2.24 2.72-1.9 3.23.33-.43.66.12 1-.31-1 1.32-1.69 2.64 0 1.95 6.91-4.31 15.57-2.25 25.62 1.37 10.83 3.81 25 3.08 34.33-5.22 1.03-1.01.15-.94-.08-1.25z" fill="#f3980c"></path></g></g></svg></svg> <!----></g></g> <g transform="translate(0,48.12913131713867)"><g data-gra="path-name" fill-rule="" class="tp-name iconsvg-namesvg"><g transform="scale(1)"><g><path d="M16.87-19.95L17.32 0 10.32 0.34 10.27-6.13 7.05-6.13 6.85 0 0.59 0 1.12-19.67 7.78-19.36 7.36-9.32 10.46-9.32 10.49-20.12 16.87-19.95ZM29.33-20.59L36.38-20.03 29.64-10.71 35.32-0.81 28.83 0.34 24.58-5.71 24.35 0.62 18.53 0.84 18.98-20.59 25.5-20.23 25-13.9 29.33-20.59Z" transform="translate(-0.5900000333786011, 20.700000762939453)"></path></g> <!----> <!----> <!----> <!----> <!----> <!----> <g data-gra="path-name-1" fill="#124098" transform="translate(38.790000915527344,0)"><g transform="scale(1)"><path d="M11.97-19.42L18.69-18.94 10.99-8.2 10.63 0.56 4 0.56 4.17-8.14 0.17-18.52 7.3-19.42 8.42-13.37 11.97-19.42ZM28.27-20.03L33.73-1.2 26.79-0.31 25.95-3.47 22.76-3.47 22.06-0.31 14.93-1.01 20.49-19.64 28.27-20.03ZM23.35-7.75L25.44-7.75 24.38-12.62 23.35-7.75ZM46.44-19.84L53.04-20.06 52.04-1.09 44.71-0.42 40.79-10.58 40.17-0.22 33.88-0.22 34.38-20.06 41.38-20.39 46.22-10.32 46.44-19.84ZM70.89-12.25L71.06-2.85Q70.4-2.03 69.44-1.41 68.47-0.8 67.37-0.39 66.26 0.01 65.1 0.22 63.94 0.42 62.89 0.42L62.89 0.42Q60.86 0.42 59.16-0.31 57.45-1.04 56.21-2.32 54.97-3.59 54.27-5.33 53.57-7.06 53.57-9.06L53.57-9.06Q53.57-10.59 53.92-12.05 54.27-13.51 54.92-14.81 55.58-16.1 56.51-17.18 57.45-18.27 58.64-19.05 59.83-19.84 61.24-20.27 62.65-20.7 64.26-20.7L64.26-20.7Q64.86-20.7 65.55-20.65 66.23-20.6 66.91-20.49 67.59-20.37 68.23-20.16 68.88-19.95 69.41-19.64L69.41-19.64 69.02-14.3Q68.23-14.59 67.4-14.69 66.57-14.8 65.77-14.8L65.77-14.8Q64.65-14.8 63.68-14.46 62.71-14.11 61.99-13.47 61.27-12.83 60.85-11.9 60.43-10.98 60.43-9.82L60.43-9.82Q60.43-9.09 60.62-8.41 60.82-7.74 61.22-7.21 61.62-6.69 62.21-6.36 62.81-6.04 63.59-6.04L63.59-6.04Q64.12-6.04 64.69-6.18 65.25-6.32 65.66-6.66L65.66-6.66 65.72-7.75 62.36-7.81 62.53-12Q64.61-12.07 66.7-12.12 68.78-12.17 70.89-12.25L70.89-12.25ZM87.97-11.11L87.97-11.11Q87.97-9.15 87.47-7.57 86.96-6 86.06-4.78 85.16-3.55 83.92-2.67 82.67-1.79 81.19-1.22 79.7-0.66 78.03-0.38 76.36-0.11 74.6-0.11L74.6-0.11Q73.94-0.11 73.31-0.15 72.68-0.18 72.03-0.25L72.03-0.25 72.42-19.02Q73.96-19.51 75.59-19.72 77.21-19.92 78.82-19.92L78.82-19.92Q80.82-19.92 82.5-19.32 84.18-18.72 85.4-17.58 86.61-16.45 87.29-14.81 87.97-13.18 87.97-11.11ZM82.24-10.02L82.24-10.21Q82.25-10.97 82.08-11.67 81.9-12.37 81.5-12.9 81.1-13.44 80.49-13.77 79.87-14.1 79.02-14.13L79.02-14.13 78.46-5.46Q79.3-5.58 79.98-6.01 80.67-6.43 81.17-7.06 81.66-7.68 81.94-8.44 82.21-9.2 82.24-10.02L82.24-10.02ZM106.1-9.88L106.1-9.88Q106.1-8.6 105.81-7.42 105.51-6.24 104.96-5.2 104.41-4.17 103.62-3.31 102.83-2.45 101.84-1.83 100.85-1.22 99.69-0.87 98.53-0.53 97.23-0.53L97.23-0.53Q95.97-0.53 94.83-0.85 93.69-1.18 92.7-1.76 91.71-2.34 90.9-3.15 90.1-3.97 89.53-4.97 88.96-5.97 88.65-7.12 88.34-8.27 88.34-9.51L88.34-9.51Q88.34-10.73 88.63-11.9 88.92-13.06 89.48-14.1 90.03-15.14 90.81-16 91.59-16.87 92.57-17.5 93.54-18.13 94.67-18.48 95.81-18.83 97.06-18.83L97.06-18.83Q99.09-18.83 100.76-18.2 102.44-17.57 103.62-16.4 104.8-15.23 105.45-13.58 106.1-11.92 106.1-9.88ZM99.89-9.51L99.89-9.51Q99.89-10.11 99.71-10.68 99.54-11.25 99.2-11.69 98.87-12.13 98.37-12.4 97.88-12.67 97.23-12.67L97.23-12.67Q96.57-12.67 96.06-12.44 95.54-12.2 95.17-11.79 94.8-11.37 94.6-10.82 94.41-10.27 94.41-9.65L94.41-9.65Q94.41-9.06 94.57-8.48 94.74-7.89 95.08-7.41 95.41-6.94 95.91-6.64 96.41-6.35 97.06-6.35L97.06-6.35Q97.72-6.35 98.25-6.61 98.77-6.87 99.13-7.31 99.5-7.75 99.69-8.32 99.89-8.9 99.89-9.51ZM119.5-19.84L126.1-20.06 125.1-1.09 117.77-0.42 113.85-10.58 113.23-0.22 106.94-0.22 107.44-20.06 114.44-20.39 119.28-10.32 119.5-19.84ZM143.95-12.25L144.12-2.85Q143.46-2.03 142.5-1.41 141.53-0.8 140.43-0.39 139.32 0.01 138.16 0.22 137 0.42 135.95 0.42L135.95 0.42Q133.92 0.42 132.22-0.31 130.51-1.04 129.27-2.32 128.03-3.59 127.33-5.33 126.64-7.06 126.64-9.06L126.64-9.06Q126.64-10.59 126.98-12.05 127.33-13.51 127.98-14.81 128.64-16.1 129.57-17.18 130.51-18.27 131.7-19.05 132.89-19.84 134.3-20.27 135.71-20.7 137.32-20.7L137.32-20.7Q137.92-20.7 138.61-20.65 139.29-20.6 139.97-20.49 140.65-20.37 141.29-20.16 141.94-19.95 142.47-19.64L142.47-19.64 142.08-14.3Q141.29-14.59 140.46-14.69 139.63-14.8 138.83-14.8L138.83-14.8Q137.71-14.8 136.74-14.46 135.77-14.11 135.05-13.47 134.33-12.83 133.91-11.9 133.49-10.98 133.49-9.82L133.49-9.82Q133.49-9.09 133.69-8.41 133.88-7.74 134.28-7.21 134.68-6.69 135.27-6.36 135.87-6.04 136.65-6.04L136.65-6.04Q137.18-6.04 137.75-6.18 138.32-6.32 138.72-6.66L138.72-6.66 138.78-7.75 135.42-7.81 135.59-12Q137.67-12.07 139.76-12.12 141.84-12.17 143.95-12.25L143.95-12.25Z" transform="translate(-0.17000001668930054, 20.700000762939453)"></path></g></g></g></g> <!----></g></g><defs v-gra="od"></defs></svg>